# Blender 4.3.2
# www.blender.org
mtllib bigleaf.mtl
o Cube
v -0.092964 -1.000000 0.092964
v -0.107279 2.671595 0.128609
v -0.092964 -1.000000 -0.092964
v -0.090084 2.718323 -0.063842
v 0.092964 -1.000000 0.092964
v 0.128780 2.765430 -0.004112
v 0.092964 -1.000000 -0.092964
v 0.158960 2.774940 -0.083022
v -0.075934 0.843531 0.070800
v -0.069995 0.859671 -0.059893
v 0.080245 0.879227 -0.066517
v 0.043798 0.845360 0.086379
v -0.776158 3.079154 0.293951
v -0.935557 2.595445 -0.339570
v 0.572824 3.153754 0.278147
v 0.564893 3.208868 -0.349786
v -0.223592 2.551217 -0.421784
v 0.393902 2.804581 -0.611400
v -0.629679 2.391798 -0.816368
v 0.431807 2.914209 -0.979156
v -0.406076 2.766696 0.563235
v 0.142777 2.835329 0.389048
v -0.699857 2.613592 1.047926
v 0.649125 2.688192 1.032122
v 0.736133 2.840191 -0.204022
v 1.180177 2.526641 0.239929
v 1.172246 2.581756 -0.388003
vn -0.9988 -0.0156 -0.0473
vn -0.0437 -0.0026 -0.9990
vn 0.9738 -0.0325 0.2249
vn -0.1285 -0.0335 0.9911
vn -0.0000 -1.0000 -0.0000
vn -0.5478 -0.8004 -0.2433
vn -0.0000 0.0036 1.0000
vn 0.9996 0.0266 -0.0000
vn -0.0000 0.0178 -0.9998
vn -1.0000 0.0092 -0.0000
vn -0.0540 0.9947 0.0880
vn -0.5452 -0.8150 -0.1964
vn 0.2333 -0.9116 0.3386
vn 0.7189 0.6931 0.0518
vn 0.3762 -0.9265 -0.0129
vn 0.9250 -0.3797 -0.0178
vn -0.0071 -0.9051 0.4252
vn -0.3219 0.7784 -0.5390
vn 0.0499 -0.9607 -0.2732
vn 0.2258 -0.9076 0.3538
vn -0.0407 0.8483 0.5279
vn 0.1742 -0.9706 0.1663
vn -0.5296 -0.8456 -0.0675
vn -0.1110 0.9938 0.0064
vn 0.0947 -0.9920 -0.0833
vn -0.3122 -0.8946 -0.3196
vn -0.3468 -0.8133 -0.4671
vn -0.0882 -0.7809 0.6184
vn 0.4107 -0.9022 0.1320
vn 0.4027 -0.8877 -0.2231
vn -0.9957 -0.0110 -0.0916
vn -0.0755 -0.0055 -0.9971
vn 0.9349 -0.0357 0.3532
vn 0.4840 0.0198 0.8748
vn -0.1292 0.0131 0.9915
vn 0.9726 0.0033 0.2326
vn -0.0458 0.0137 -0.9989
vn -0.9990 0.0131 -0.0438
vn -0.3262 0.7891 -0.5205
vn 0.7820 -0.5363 0.3176
vn -0.0128 -0.9225 0.3858
vn -0.4579 0.8384 -0.2957
vn 0.0405 -0.9666 -0.2531
vn 0.4339 -0.8896 0.1427
vn 0.6882 0.6464 0.3295
vn 0.6339 0.6403 -0.4338
vn 0.3682 -0.9007 -0.2306
vn -0.2846 -0.9586 0.0047
vn -0.4746 -0.8742 0.1029
vt 0.625000 0.000000
vt 0.500000 0.250000
vt 0.500000 0.000000
vt 0.625000 0.250000
vt 0.500000 0.500000
vt 0.625000 0.750000
vt 0.500000 0.750000
vt 0.625000 1.000000
vt 0.500000 1.000000
vt 0.375000 0.500000
vt 0.125000 0.750000
vt 0.125000 0.500000
vt 0.375000 1.000000
vt 0.375000 0.750000
vt 0.375000 0.250000
vt 0.375000 0.000000
vt 0.625000 0.500000
vt 0.875000 0.750000
vt 0.875000 0.500000
vt 0.000000 0.000000
s 0
usemtl Material
f 2/1/1 10/2/1 9/3/1
f 4/4/2 11/5/2 10/2/2
f 11/5/3 6/6/3 12/7/3
f 12/7/4 2/8/4 9/9/4
f 7/10/5 1/11/5 3/12/5
f 4/4/6 2/1/6 13/1/6
f 12/7/7 1/13/7 5/14/7
f 7/10/8 12/7/8 5/14/8
f 10/2/9 7/10/9 3/15/9
f 9/3/10 3/15/10 1/16/10
f 16/17/11 13/18/11 15/6/11
f 13/1/12 2/1/12 21/1/12
f 8/17/13 4/4/13 17/4/13
f 15/6/14 27/17/14 16/17/14
f 18/17/15 17/4/15 19/4/15
f 16/17/16 18/17/16 20/17/16
f 14/4/17 17/4/17 4/4/17
f 16/17/18 19/19/18 14/19/18
f 21/8/19 24/6/19 23/8/19
f 2/8/20 22/6/20 21/8/20
f 15/6/21 23/18/21 24/6/21
f 22/6/22 6/6/22 25/6/22
f 25/6/23 27/17/23 26/6/23
f 18/17/24 8/17/24 25/6/24
f 8/17/25 25/6/25 6/6/25
f 22/6/26 25/6/26 26/20/26
f 23/1/27 13/1/27 21/1/27
f 14/4/28 4/4/28 13/1/28
f 18/17/29 8/17/29 17/4/29
f 20/17/30 18/17/30 19/4/30
f 2/1/31 4/4/31 10/2/31
f 4/4/32 8/17/32 11/5/32
f 11/5/33 8/17/33 6/6/33
f 12/7/34 6/6/34 2/8/34
f 7/10/5 5/14/5 1/11/5
f 12/7/35 9/9/35 1/13/35
f 7/10/36 11/5/36 12/7/36
f 10/2/37 11/5/37 7/10/37
f 9/3/38 10/2/38 3/15/38
f 16/17/39 14/19/39 13/18/39
f 15/6/14 26/6/14 27/17/14
f 16/17/40 8/17/40 18/17/40
f 14/4/41 19/4/41 17/4/41
f 16/17/42 20/17/42 19/19/42
f 21/8/43 22/6/43 24/6/43
f 2/8/44 6/6/44 22/6/44
f 15/6/21 13/18/21 23/18/21
f 24/6/45 26/20/45 15/6/45
f 16/17/46 27/17/46 20/17/46
f 20/17/47 25/6/47 18/17/47
f 22/6/48 26/20/48 24/6/48
f 25/6/49 20/17/49 27/17/49
