# Blender 4.3.2
# www.blender.org
mtllib rock_2.mtl
o Cube
v 0.717935 0.707769 -0.537636
v 0.890165 -0.526005 -1.129190
v 0.712097 0.316411 1.579106
v 0.846421 -1.000000 0.846421
v -0.766235 0.427842 -0.635506
v -0.846421 -1.000000 -0.846421
v -0.211443 -0.024868 1.582158
v -0.846421 -1.000000 0.846421
v 0.616943 1.128790 -1.616511
v 0.961663 -0.037043 -2.063253
v -0.725335 0.997038 -1.127059
v -0.896455 -0.006287 -2.247484
v 0.485030 -1.068364 -2.231020
v -0.545594 -1.045308 -1.865839
v 0.787629 -0.680294 -2.127320
v -0.689135 -0.749128 -2.677304
v 0.168420 1.220303 -2.200537
v 0.471315 0.536296 -2.162453
v -0.075297 1.099438 -2.213657
v -0.464504 0.385990 -2.295274
v -0.995010 0.058444 0.143612
v -1.215277 -0.367962 -0.098367
v -0.943674 -0.032097 0.791008
v -1.215277 -0.367962 0.590495
v 0.882629 -1.209429 -1.340649
v 0.368492 -1.521785 0.368492
v -0.433785 -1.205083 -0.498670
v -0.488907 -1.223443 0.489218
v 1.400046 0.451037 -0.231562
v 2.111796 -0.251734 -0.063857
v 2.071871 0.139540 0.657076
v 2.111796 -0.251734 0.439302
v 1.668064 -1.028912 -0.142295
vn -0.2519 0.9434 0.2156
vn 0.0726 -0.5493 0.8325
vn -0.8895 0.2392 -0.3892
vn -0.3924 -0.9167 -0.0750
vn 0.4822 -0.3880 0.7855
vn -0.0712 -0.9907 -0.1160
vn -0.7131 0.5431 -0.4433
vn -0.0489 0.8440 0.5341
vn 0.9594 0.2129 0.1849
vn -0.9957 0.0691 0.0618
vn 0.0638 -0.7246 -0.6862
vn 0.3491 -0.0011 -0.9371
vn 0.9092 -0.4154 -0.0292
vn -0.9522 -0.2999 0.0590
vn 0.1174 0.0237 -0.9928
vn 0.1176 -0.1425 -0.9828
vn -0.1274 0.9869 0.0992
vn 0.7048 0.3792 -0.5995
vn -0.8558 0.5129 0.0676
vn -0.6974 -0.0291 0.7161
vn -0.8637 -0.5040 -0.0000
vn -0.3563 0.9013 0.2463
vn -0.2060 -0.9651 -0.1618
vn -0.0550 -0.7410 0.6692
vn -0.4863 -0.8736 -0.0160
vn 0.3283 -0.9417 -0.0733
vn 0.7909 0.5552 -0.2575
vn 0.4994 0.4303 -0.7520
vn 0.8684 -0.4958 -0.0000
vn 0.2527 0.9530 0.1669
vn 0.4590 -0.7910 0.4046
vn 0.6634 -0.3101 -0.6810
vn 0.5557 -0.6777 0.4816
vn 0.9876 0.1535 -0.0326
vn -0.8878 -0.3897 -0.2447
vn 0.0929 0.5180 -0.8504
vn 0.5553 0.3867 -0.7363
vn 0.9139 0.1108 -0.3906
vn 0.8136 0.1637 -0.5579
vt 0.625000 0.500000
vt 0.875000 0.500000
vt 0.875000 0.750000
vt 0.625000 0.750000
vt 0.375000 0.750000
vt 0.625000 1.000000
vt 0.375000 1.000000
vt 0.625000 0.250000
vt 0.375000 0.250000
vt 0.125000 0.500000
vt 0.375000 0.500000
vt 0.375000 0.000000
vt 0.625000 0.000000
vt 0.125000 0.750000
vt 0.000000 0.000000
s 0
usemtl Material
f 1/1/1 5/2/1 7/3/1 3/4/1
f 4/5/2 3/4/2 7/6/2 8/7/2
f 5/8/3 6/9/3 22/9/3 21/8/3
f 6/10/4 14/10/4 27/10/4
f 3/4/5 4/5/5 32/5/5 31/4/5
f 25/11/6 27/10/6 14/10/6 13/11/6
f 12/9/7 11/8/7 19/8/7 20/9/7
f 5/2/8 1/1/8 9/1/8 11/2/8
f 2/11/9 10/11/9 9/1/9
f 6/9/10 5/8/10 11/8/10 12/9/10
f 13/11/11 14/10/11 16/10/11 15/11/11
f 10/11/12 15/11/12 16/9/12
f 10/11/13 2/11/13 13/11/13 15/11/13
f 12/9/14 16/9/14 14/9/14
f 20/9/15 19/8/15 17/1/15 18/11/15
f 10/11/16 12/9/16 20/9/16 18/11/16
f 11/2/17 9/1/17 17/1/17 19/2/17
f 9/1/18 10/11/18 18/11/18 17/1/18
f 24/12/19 23/13/19 21/8/19 22/9/19
f 8/7/20 7/6/20 23/6/20 24/7/20
f 6/10/21 8/14/21 24/14/21 22/10/21
f 7/3/22 5/2/22 21/2/22 23/3/22
f 27/10/23 25/11/23 26/5/23 28/14/23
f 4/5/24 8/7/24 28/7/24 26/5/24
f 8/14/25 6/10/25 27/10/25 28/14/25
f 33/15/26 26/5/26 25/11/26
f 30/11/27 29/1/27 31/4/27 32/5/27
f 2/11/28 1/1/28 29/1/28
f 30/11/29 32/5/29 33/15/29
f 1/1/30 3/4/30 31/4/30 29/1/30
f 33/15/31 4/5/31 26/5/31
f 2/11/32 30/11/32 33/15/32
f 32/5/33 4/5/33 33/15/33
f 1/1/34 2/11/34 9/1/34
f 6/9/35 12/9/35 14/9/35
f 12/9/36 10/11/36 16/9/36
f 30/11/37 2/11/37 29/1/37
f 25/11/38 13/11/38 2/11/38
f 25/11/39 2/11/39 33/15/39
